<?xml version="1.0" standalone="no"?>
<!DOCTYPE svg PUBLIC "-//W3C//DTD SVG 20010904//EN"
 "http://www.w3.org/TR/2001/REC-SVG-20010904/DTD/svg10.dtd">
<svg version="1.0" xmlns="http://www.w3.org/2000/svg"
 width="639.000000pt" height="626.000000pt" viewBox="0 0 639.000000 626.000000"
 preserveAspectRatio="xMidYMid meet">

<g transform="translate(0.000000,626.000000) scale(0.100000,-0.100000)"
fill="#000000" stroke="none">
<path d="M3580 5903 c-55 -9 -147 -34 -185 -49 -70 -28 -88 -38 -170 -87 -90
-55 -146 -98 -204 -160 -23 -23 -41 -37 -41 -31 0 6 7 17 15 24 8 7 15 17 15
23 0 6 8 20 19 31 21 24 64 116 53 116 -15 -1 -73 -58 -137 -135 -36 -44 -78
-94 -93 -110 -15 -17 -35 -42 -44 -57 -10 -14 -29 -38 -42 -53 -14 -15 -37
-47 -51 -72 -22 -36 -24 -47 -14 -59 29 -36 100 20 161 127 35 60 51 71 34 22
-14 -42 -7 -84 20 -114 24 -26 78 -25 106 3 22 22 22 24 -27 53 -15 9 -15 14
4 57 28 66 124 163 238 241 108 72 162 98 267 127 310 86 772 -30 1137 -286
131 -92 377 -330 511 -494 155 -191 324 -463 410 -662 56 -129 144 -404 178
-558 5 -19 18 -78 30 -130 58 -254 74 -395 85 -735 8 -240 -11 -405 -78 -667
-16 -61 -73 -240 -87 -273 -42 -97 -94 -201 -128 -258 -23 -37 -42 -71 -42
-76 0 -5 -4 -11 -8 -13 -5 -2 -30 -31 -55 -66 -98 -134 -220 -238 -362 -309
-109 -55 -183 -72 -313 -72 -218 1 -312 31 -662 216 -196 104 -345 214 -409
303 -20 27 -44 50 -53 50 -21 0 -33 -39 -24 -76 20 -78 234 -240 506 -381 52
-27 104 -54 115 -60 63 -34 196 -85 210 -79 9 3 14 2 11 -3 -3 -5 16 -14 42
-20 26 -7 61 -16 77 -20 87 -21 314 -8 410 24 42 14 175 76 210 98 137 85 290
242 392 403 53 82 95 159 112 201 11 28 28 70 39 94 11 24 25 60 32 79 7 19
16 44 21 55 12 29 59 199 78 288 6 26 15 66 21 90 5 23 14 67 21 97 14 65 19
461 8 610 -15 212 -62 492 -113 675 -8 28 -17 66 -21 85 -15 81 -99 336 -140
426 -14 30 -25 58 -25 62 0 12 -93 190 -137 262 -21 36 -52 87 -68 114 -35 57
-180 250 -215 286 -14 14 -40 43 -58 65 -18 22 -66 74 -107 115 -322 331 -588
501 -926 594 -128 35 -219 48 -369 51 -85 1 -166 1 -180 -2z"/>
<path d="M1475 5864 c-11 -3 -58 -15 -105 -26 -79 -20 -183 -60 -271 -106 -67
-34 -134 -90 -205 -169 -66 -73 -174 -208 -174 -216 0 -2 -17 -35 -38 -73 -44
-82 -77 -174 -96 -269 -8 -38 -23 -115 -34 -170 -57 -277 -60 -569 -12 -1017
6 -53 15 -123 21 -155 5 -32 14 -83 19 -114 31 -180 109 -330 191 -368 56 -25
77 -26 107 -5 32 22 29 54 -6 54 -91 0 -166 135 -216 390 -16 85 -20 116 -46
390 -35 378 -12 700 79 1062 17 70 49 143 92 208 92 143 158 229 219 287 70
67 199 138 345 192 39 14 156 31 222 31 113 0 416 -83 461 -127 7 -7 18 -13
23 -13 11 0 116 -110 141 -148 23 -35 48 -120 48 -164 0 -48 27 -72 60 -55 20
10 26 21 28 56 3 33 7 41 18 37 9 -3 24 -2 34 4 34 18 31 38 -12 77 -69 63
-108 104 -108 115 0 21 -83 108 -141 148 -59 40 -203 94 -339 126 -66 15 -269
27 -305 18z"/>
<path d="M2465 5794 c-4 -11 -10 -74 -12 -140 -5 -105 -3 -131 16 -192 23 -75
35 -87 72 -68 32 16 34 36 10 109 -11 34 -22 82 -25 107 -3 25 -8 70 -12 101
-3 30 -14 66 -24 78 -16 22 -17 22 -25 5z"/>
<path d="M1850 5548 c0 -25 36 -49 97 -63 68 -17 122 -19 143 -5 24 15 -1 44
-41 46 -35 3 -122 18 -171 30 -21 5 -28 3 -28 -8z"/>
<path d="M2773 5083 c-13 -9 -23 -23 -23 -33 0 -13 -12 -19 -51 -23 -152 -18
-237 -120 -246 -292 -6 -106 14 -176 75 -265 79 -116 153 -160 270 -161 134
-2 272 40 369 113 78 59 168 208 177 294 6 65 -24 133 -88 196 -56 56 -98 68
-236 68 -104 0 -160 16 -160 47 0 7 -4 13 -9 13 -5 0 -13 9 -16 20 -10 31 -36
40 -62 23z m73 -154 c47 -27 58 -29 160 -29 94 0 114 -3 149 -23 90 -51 109
-136 53 -247 -31 -62 -109 -151 -158 -182 -14 -8 -47 -22 -75 -30 -135 -41
-194 -45 -253 -14 -31 16 -92 86 -92 105 0 6 -4 11 -10 11 -5 0 -10 5 -10 10
0 6 13 1 28 -10 64 -48 185 -28 244 38 37 43 81 134 81 169 0 60 -74 112 -160
113 -41 0 -53 3 -53 16 0 36 -43 56 -94 44 -33 -7 -35 -6 -24 8 16 19 76 45
88 37 5 -3 11 -1 14 4 11 17 62 8 112 -20z"/>
<path d="M2051 4994 c-17 -14 -31 -31 -31 -38 0 -19 34 -46 58 -46 37 0 66
-20 98 -68 48 -72 50 -76 26 -63 -47 25 -90 -4 -124 -83 -55 -128 -64 -232
-21 -264 18 -13 68 -11 109 5 15 6 14 1 -6 -28 -32 -47 -86 -98 -115 -109 -23
-9 -26 -6 -40 27 -34 80 -53 305 -33 382 19 74 40 111 63 111 30 0 39 27 20
57 -21 32 -38 37 -78 24 -45 -15 -92 -90 -108 -171 -21 -106 3 -362 43 -463
35 -89 180 -73 282 31 31 31 69 68 84 82 57 49 100 258 72 346 -20 64 -59 142
-88 177 -15 17 -32 41 -38 52 -17 31 -74 65 -110 65 -20 0 -44 -10 -63 -26z"/>
<path d="M2014 4127 c-34 -29 -92 -79 -129 -112 -38 -33 -93 -82 -124 -109
-31 -27 -99 -94 -151 -150 -155 -164 -210 -217 -319 -312 -58 -49 -123 -109
-145 -133 -48 -51 -54 -57 -215 -235 -68 -75 -127 -136 -131 -136 -4 0 -34
-28 -68 -62 l-62 -63 -112 3 c-123 3 -196 -11 -247 -47 -16 -12 -32 -21 -35
-21 -15 0 -67 -56 -86 -92 -25 -49 -26 -140 -2 -184 23 -43 76 -85 147 -119
33 -16 62 -29 65 -30 3 0 29 -9 58 -20 45 -16 51 -22 45 -39 -3 -12 -7 -59 -7
-106 -1 -47 -4 -90 -8 -96 -4 -6 -10 -44 -13 -85 -3 -41 -11 -114 -17 -164
-26 -204 -12 -247 106 -314 29 -16 59 -36 67 -43 23 -22 72 -38 99 -33 14 3
52 8 85 11 33 4 89 10 125 14 36 4 117 7 180 6 63 -1 133 2 155 7 155 36 201
44 205 40 2 -2 0 -7 -5 -11 -27 -20 -95 -141 -121 -219 -19 -55 -19 -157 -1
-209 8 -22 45 -101 81 -175 82 -165 138 -331 135 -403 -4 -118 -33 -182 -99
-216 -75 -38 -153 -35 -310 13 -246 76 -400 152 -497 246 -70 67 -86 102 -87
181 -1 84 38 168 124 262 64 70 69 82 44 92 -35 13 -143 -73 -201 -159 -22
-33 -41 -98 -47 -162 -12 -119 81 -257 238 -353 110 -69 303 -152 466 -201 98
-30 100 -30 176 -33 208 -6 326 148 289 379 -12 76 -52 188 -112 314 -30 63
-50 117 -46 121 12 10 95 42 118 45 11 1 34 8 50 15 17 7 44 14 60 16 57 9
317 147 370 198 17 15 50 39 75 53 74 42 153 96 190 130 19 18 55 47 80 64 58
39 110 110 268 361 70 112 129 205 132 208 21 21 134 206 188 310 24 47 50 92
57 100 7 8 32 51 55 95 24 44 46 85 50 90 4 6 26 45 49 88 103 194 124 231
146 265 36 56 41 86 16 111 -21 21 -71 29 -71 11 0 -5 -6 -10 -13 -10 -7 0
-14 -11 -15 -23 -2 -24 -113 -248 -182 -367 -21 -36 -77 -141 -125 -235 -48
-93 -91 -174 -95 -180 -4 -5 -17 -27 -29 -47 -12 -21 -30 -54 -41 -73 -11 -20
-41 -67 -68 -106 -26 -38 -54 -82 -63 -98 -8 -16 -72 -114 -142 -219 -132
-197 -201 -275 -295 -329 -26 -15 -48 -31 -50 -35 -2 -4 -8 -8 -14 -8 -6 0
-45 -24 -87 -53 -147 -102 -430 -228 -586 -260 -82 -17 -95 -13 -95 29 0 19 3
33 8 32 13 -5 129 42 214 85 46 24 103 49 128 56 100 29 169 68 232 132 9 9
21 19 25 20 23 10 177 215 216 288 24 45 51 91 60 102 9 10 17 21 17 23 0 2
16 28 36 57 19 29 44 72 55 95 10 24 23 45 28 49 6 3 28 44 51 91 22 48 54
103 70 124 17 21 30 41 30 45 0 5 10 22 23 39 13 17 40 63 62 101 21 39 57
100 81 136 24 37 44 72 44 78 0 6 5 11 10 11 6 0 10 4 10 9 0 6 13 30 29 54
37 54 151 280 151 299 0 8 4 18 9 24 5 5 21 63 35 128 15 66 30 124 34 130 26
42 -17 91 -78 90 -53 -2 -143 -50 -201 -109 -58 -60 -64 -68 -116 -165 -43
-82 -57 -105 -128 -225 -26 -44 -66 -114 -88 -155 -22 -41 -52 -91 -67 -110
-14 -19 -57 -80 -95 -135 -37 -55 -72 -101 -77 -103 -4 -2 -8 -9 -8 -16 0 -7
-24 -48 -53 -92 -29 -44 -68 -106 -86 -139 -31 -56 -101 -148 -166 -220 -15
-16 -39 -46 -53 -65 -50 -65 -197 -211 -238 -236 -47 -28 -147 -57 -233 -69
-19 -2 -69 -14 -111 -25 -57 -14 -109 -19 -199 -19 -67 0 -125 -2 -129 -5 -5
-3 -70 -7 -146 -10 -115 -5 -138 -3 -143 9 -3 8 -23 18 -44 21 -21 4 -39 10
-39 14 0 4 11 5 25 2 59 -11 75 52 23 90 -37 26 -53 25 -87 -5 l-23 -22 6 65
c11 111 18 140 31 140 8 0 15 -5 17 -11 6 -17 58 30 58 52 0 24 -19 45 -53 58
-23 9 -24 11 -15 68 5 32 9 85 8 119 0 101 50 219 65 151 2 -12 14 -67 25
-122 34 -161 67 -283 82 -302 20 -24 35 -13 45 33 12 52 4 144 -27 293 -28
134 -27 142 20 171 48 29 73 67 89 138 23 92 18 132 -20 184 -19 25 -51 56
-71 69 -21 13 -38 27 -38 31 0 4 30 33 67 65 78 68 135 123 217 213 140 153
279 291 356 354 33 27 195 173 229 207 9 8 34 37 56 65 33 41 219 221 291 281
174 146 193 166 187 196 -3 14 -8 26 -12 25 -3 0 -8 0 -11 1 -3 2 -18 4 -35 6
-24 3 -42 -6 -91 -48z m960 -874 c-23 -154 -110 -359 -233 -551 -38 -59 -82
-130 -98 -159 -15 -29 -55 -98 -89 -155 -34 -57 -85 -148 -114 -203 -29 -55
-71 -131 -94 -169 -22 -38 -53 -90 -68 -115 -15 -25 -34 -59 -42 -76 -8 -16
-23 -41 -33 -55 -10 -14 -24 -37 -32 -51 -7 -14 -24 -39 -37 -54 -13 -15 -24
-32 -24 -36 0 -4 -6 -14 -13 -21 -6 -7 -30 -39 -52 -71 -68 -101 -196 -201
-303 -239 -56 -20 -71 -24 -122 -34 -28 -5 -75 -20 -132 -39 -30 -11 -38 -10
-42 0 -2 7 -2 16 2 19 3 4 7 16 9 28 6 37 63 134 105 177 28 30 38 48 35 62
-4 13 0 22 11 26 115 38 154 70 315 253 56 63 106 120 112 126 12 12 50 61
100 127 19 26 68 101 108 165 39 64 96 152 127 196 66 93 63 89 130 196 30 47
70 110 89 140 20 30 41 66 47 80 6 14 42 75 79 135 37 61 79 132 92 160 26 49
141 175 162 175 7 0 9 -14 5 -37z"/>
<path d="M1043 2223 c-20 -7 -15 -41 6 -53 27 -14 51 -2 51 25 0 29 -26 41
-57 28z"/>
<path d="M917 2062 c-22 -25 -21 -31 8 -62 46 -48 103 -19 91 45 -6 33 -9 35
-45 35 -24 0 -44 -7 -54 -18z"/>
<path d="M1430 1981 c-5 -11 -10 -24 -10 -30 0 -22 41 -51 70 -51 38 0 51 37
26 75 -21 31 -70 35 -86 6z"/>
<path d="M1142 1748 c-30 -30 1 -88 45 -88 38 0 53 11 53 40 0 48 -66 80 -98
48z"/>
<path d="M964 1263 c-11 -10 -31 -34 -44 -53 -13 -19 -27 -37 -30 -40 -10 -10
-78 -126 -105 -180 -30 -62 -37 -156 -16 -208 26 -62 120 -102 226 -98 104 5
163 46 68 46 -133 1 -213 42 -213 108 0 39 41 146 86 225 71 124 84 153 84
187 0 35 -25 41 -56 13z"/>
</g>
</svg>
